<svg version="1.1" id="Layer_1" xmlns="http://www.w3.org/2000/svg" xmlns:xlink="http://www.w3.org/1999/xlink" x="0px" y="0px"
	 width="100%" viewBox="0 0 830 631" enable-background="new 0 0 830 631" xml:space="preserve">
<path fill="#FDFDFD" opacity="1.000000" stroke="none" 
	d="
M514.000000,632.000000 
	C342.666656,632.000000 171.833328,632.000000 1.000000,632.000000 
	C1.000000,421.666656 1.000000,211.333328 1.000000,1.000000 
	C277.666656,1.000000 554.333313,1.000000 831.000000,1.000000 
	C831.000000,211.333328 831.000000,421.666656 831.000000,632.000000 
	C725.500000,632.000000 620.000000,632.000000 514.000000,632.000000 
M534.038086,446.862335 
	C540.035400,446.745087 546.032776,446.627838 552.934631,446.735138 
	C558.623047,446.612366 564.311523,446.489563 570.846069,446.659088 
	C583.231689,446.420532 595.617310,446.181976 608.906372,446.115173 
	C615.258728,445.889557 621.611084,445.663971 628.854736,445.691895 
	C634.571777,445.408386 640.288757,445.124878 646.917297,444.993774 
	C662.673462,443.926361 678.560181,443.772858 694.150635,441.545563 
	C711.203003,439.109375 728.202942,435.555450 744.801636,430.957764 
	C755.909424,427.881012 765.484314,421.161591 771.341003,409.527924 
	C771.749634,408.622559 772.246704,407.745941 772.551819,406.806946 
	C774.023010,402.278900 776.934021,397.239166 773.021912,393.183563 
	C769.220459,389.242676 763.973694,391.188812 759.363831,392.715881 
	C743.428711,397.994751 727.517944,403.347137 711.593201,408.657593 
	C701.412659,412.052490 691.223877,415.422760 680.264771,419.073273 
	C677.369934,419.614105 674.441101,420.016876 671.585999,420.719208 
	C658.036133,424.052399 644.591919,427.875763 630.944946,430.736420 
	C617.682007,433.516541 604.218445,435.339325 590.210083,437.546478 
	C589.808838,437.670380 589.407593,437.794312 588.331482,437.840698 
	C587.890564,437.932434 587.449707,438.024170 586.213684,438.043182 
	C583.119202,438.622040 580.024780,439.200897 576.055603,439.730804 
	C571.708313,440.355713 567.361023,440.980652 562.406982,441.403931 
	C561.607239,441.609650 560.807434,441.815338 559.185547,441.923035 
	C556.790344,442.282043 554.395203,442.641022 551.122620,442.893250 
	C545.098328,443.616974 539.074097,444.340698 532.156738,444.918060 
	C527.534485,445.385742 522.912231,445.853424 518.290039,446.321075 
	C518.304321,446.491852 518.318604,446.662598 518.332947,446.833344 
	C523.260925,446.833344 528.188965,446.833344 534.038086,446.862335 
M410.898224,236.554901 
	C426.553497,237.746506 442.063904,239.726883 456.686493,245.895187 
	C477.233734,254.562729 497.731598,263.347351 518.236877,272.114044 
	C518.548096,272.247101 518.683044,272.792572 519.308716,273.809326 
	C494.725067,275.330627 470.709198,276.816772 446.693329,278.302917 
	C461.412842,280.223694 476.161102,281.385132 490.915222,282.466400 
	C525.793396,285.022430 560.676819,287.507141 595.553467,290.084625 
	C621.288269,291.986542 647.070068,293.461365 672.730347,296.103027 
	C696.091797,298.507996 718.493896,304.783600 738.942810,316.924927 
	C752.045837,324.704742 763.812439,334.059479 773.970032,345.622925 
	C773.672119,343.808502 773.144043,342.140289 772.239441,340.710175 
	C761.762390,324.146912 747.773560,311.375824 730.436462,302.265503 
	C710.669983,291.878479 689.252075,286.637054 667.367188,284.254761 
	C637.753845,281.031219 607.980164,279.259399 578.265259,276.997345 
	C555.562866,275.269165 533.311401,271.701385 512.281677,262.401581 
	C497.053894,255.667480 481.587067,249.456177 466.502625,242.420441 
	C449.260712,234.378433 430.970551,231.658310 411.476776,229.965576 
	C393.341553,229.581924 375.159058,228.180664 357.080658,229.020386 
	C315.796326,230.938004 274.673798,234.478287 234.869186,247.019501 
	C180.583435,264.123322 126.191505,280.890045 71.856194,297.836884 
	C70.934052,298.124512 70.152100,298.861572 68.913002,299.632721 
	C86.888107,301.309601 104.161850,302.921082 121.435600,304.532532 
	C121.396774,304.877899 121.357941,305.223297 121.319115,305.568665 
	C97.722694,306.302124 74.126274,307.035553 50.224899,307.778473 
	C50.027153,311.607941 49.851246,315.014526 49.658596,318.745392 
	C54.047981,318.745392 58.013981,318.798492 61.977871,318.729919 
	C65.672585,318.666016 66.735466,320.951324 65.049126,323.471954 
	C63.696835,325.493286 60.991161,327.400269 58.619209,327.808929 
	C49.249111,329.423218 46.797741,330.665955 46.088230,340.265594 
	C45.398624,349.595947 46.171513,359.121124 47.253807,368.450378 
	C47.653465,371.895355 50.203819,375.572784 52.751637,378.192719 
	C59.358158,384.986267 66.605499,391.151794 73.385170,397.784607 
	C75.557365,399.909729 77.376259,402.545837 78.823784,405.235046 
	C84.183784,415.192902 89.354530,425.253418 94.531006,435.309052 
	C98.191788,442.420349 103.724922,445.184235 111.903618,445.189484 
	C146.056915,445.211426 180.209045,445.924225 214.363159,446.147980 
	C238.015793,446.302948 261.670959,446.072388 286.190125,446.220551 
	C330.636841,444.511200 375.095734,443.065887 419.526855,441.018158 
	C463.817780,438.976898 507.936798,434.915161 551.574585,426.763611 
	C564.790100,424.294922 577.853821,421.013702 591.812195,417.983368 
	C618.484741,412.169037 645.270813,406.824768 671.798950,400.413025 
	C700.422791,393.494873 728.838379,385.700623 757.263550,377.988831 
	C762.648560,376.527863 767.977783,374.205658 772.762756,371.331848 
	C781.406982,366.140320 782.073242,360.155853 773.929321,354.182892 
	C768.640930,350.304230 761.895996,347.968445 755.459656,346.177612 
	C732.539856,339.800446 709.414368,334.163696 686.481567,327.830963 
	C670.930359,323.536591 655.851379,316.859863 640.064697,314.238739 
	C612.177612,309.608612 583.958435,306.772278 555.792725,304.079712 
	C521.298950,300.782166 486.709473,298.496613 452.175293,295.606934 
	C402.699127,291.466919 353.209625,287.452118 303.779602,282.810944 
	C284.586334,281.008820 265.499451,277.899597 246.444351,274.879486 
	C237.918701,273.528198 229.590729,270.929718 221.173050,268.897217 
	C232.252716,264.888092 243.319672,261.897217 254.260895,258.501221 
	C301.028748,243.985168 348.771271,235.819275 397.838623,236.124390 
	C401.261353,236.145676 404.682617,236.398560 408.766571,236.551834 
	C409.192169,236.439133 409.617737,236.326431 410.898224,236.554901 
z"/>
<path fill="#050403" opacity="1.000000" stroke="none" 
	d="
M285.324982,446.014069 
	C261.670959,446.072388 238.015793,446.302948 214.363159,446.147980 
	C180.209045,445.924225 146.056915,445.211426 111.903618,445.189484 
	C103.724922,445.184235 98.191788,442.420349 94.531006,435.309052 
	C89.354530,425.253418 84.183784,415.192902 78.823784,405.235046 
	C77.376259,402.545837 75.557365,399.909729 73.385170,397.784607 
	C66.605499,391.151794 59.358158,384.986267 52.751637,378.192719 
	C50.203819,375.572784 47.653465,371.895355 47.253807,368.450378 
	C46.171513,359.121124 45.398624,349.595947 46.088230,340.265594 
	C46.797741,330.665955 49.249111,329.423218 58.619209,327.808929 
	C60.991161,327.400269 63.696835,325.493286 65.049126,323.471954 
	C66.735466,320.951324 65.672585,318.666016 61.977871,318.729919 
	C58.013981,318.798492 54.047981,318.745392 49.658596,318.745392 
	C49.851246,315.014526 50.027153,311.607941 50.224899,307.778473 
	C74.126274,307.035553 97.722694,306.302124 121.319115,305.568665 
	C121.357941,305.223297 121.396774,304.877899 121.435600,304.532532 
	C104.161850,302.921082 86.888107,301.309601 68.913002,299.632721 
	C70.152100,298.861572 70.934052,298.124512 71.856194,297.836884 
	C126.191505,280.890045 180.583435,264.123322 234.869186,247.019501 
	C274.673798,234.478287 315.796326,230.938004 357.080658,229.020386 
	C375.159058,228.180664 393.341553,229.581924 411.747009,230.390594 
	C411.318726,232.143616 410.620209,233.471603 409.674744,234.905380 
	C408.986725,235.522018 408.545654,236.032883 408.104584,236.543732 
	C404.682617,236.398560 401.261353,236.145676 397.838623,236.124390 
	C348.771271,235.819275 301.028748,243.985168 254.260895,258.501221 
	C243.319672,261.897217 232.252716,264.888092 221.173050,268.897217 
	C229.590729,270.929718 237.918701,273.528198 246.444351,274.879486 
	C265.499451,277.899597 284.586334,281.008820 303.779602,282.810944 
	C353.209625,287.452118 402.699127,291.466919 452.175293,295.606934 
	C486.709473,298.496613 521.298950,300.782166 555.792725,304.079712 
	C583.958435,306.772278 612.177612,309.608612 640.064697,314.238739 
	C655.851379,316.859863 670.930359,323.536591 686.481567,327.830963 
	C709.414368,334.163696 732.539856,339.800446 755.459656,346.177612 
	C761.895996,347.968445 768.640930,350.304230 773.929321,354.182892 
	C782.073242,360.155853 781.406982,366.140320 772.762756,371.331848 
	C767.977783,374.205658 762.648560,376.527863 757.263550,377.988831 
	C728.838379,385.700623 700.422791,393.494873 671.798950,400.413025 
	C645.270813,406.824768 618.484741,412.169037 590.953613,417.942047 
	C484.754547,422.290375 379.414001,426.679993 273.709595,431.084808 
	C277.480652,435.931763 281.402832,440.972931 285.324982,446.014069 
M566.305908,382.939362 
	C567.244385,381.002716 568.442383,379.147430 569.079102,377.116211 
	C573.103394,364.278259 577.015137,351.404907 580.931152,338.533203 
	C581.488647,336.700684 581.868042,334.813995 582.478333,332.354156 
	C577.424927,332.354156 573.126038,332.188019 568.856445,332.468018 
	C567.753906,332.540314 566.117371,333.820007 565.791565,334.874329 
	C563.638000,341.842926 561.775146,348.901367 559.361511,356.504364 
	C557.609192,362.207855 555.845459,367.907928 554.108276,373.616058 
	C552.841003,377.779968 550.143372,379.941681 545.703857,379.924133 
	C535.255493,379.882812 524.805481,379.803009 514.358948,379.945526 
	C510.088531,380.003784 507.696625,378.550873 508.227325,373.318970 
	C512.354736,360.043060 516.482117,346.767120 520.849243,332.720276 
	C515.882751,332.720276 511.735046,332.399994 507.681946,332.879547 
	C506.083557,333.068634 503.845093,334.757751 503.348877,336.247192 
	C499.727936,347.115417 496.299011,358.057129 493.213837,369.088745 
	C492.259521,372.501221 492.558105,376.264099 492.229095,380.705048 
	C494.135406,388.829224 497.881104,392.803070 506.655762,393.129211 
	C520.718445,393.651855 534.846802,393.668427 548.890686,392.883484 
	C555.519531,392.512970 562.143311,390.006195 566.305908,382.939362 
M627.500000,346.054840 
	C634.328125,346.071533 641.157227,346.026917 647.983948,346.133484 
	C650.923401,346.179413 653.299744,347.320953 653.391907,350.725677 
	C653.484009,354.129761 651.118286,355.300659 648.237427,355.662109 
	C646.593933,355.868317 644.914062,355.819397 643.250366,355.823914 
	C626.596497,355.869171 609.941895,355.840485 593.289856,356.034607 
	C591.666443,356.053497 589.011658,357.059448 588.606140,358.223907 
	C584.633667,369.629822 581.037354,381.166718 577.137451,393.276947 
	C579.607605,393.412201 581.376953,393.591217 583.146423,393.592529 
	C594.304504,393.600739 605.463135,393.625519 616.620544,393.532837 
	C624.944580,393.463684 633.292480,393.570038 641.583008,392.961792 
	C649.183533,392.404205 655.869263,389.558960 659.501770,382.126404 
	C662.646790,375.691254 662.045105,369.661743 656.851562,364.212799 
	C657.800598,363.703674 658.356262,363.368958 658.941223,363.097260 
	C667.371765,359.181732 670.868530,352.613098 669.239136,343.733429 
	C667.928894,336.593506 663.498657,333.406372 653.700867,332.606476 
	C651.876770,332.457550 650.042358,332.368439 648.212585,332.366699 
	C630.060120,332.349243 611.907715,332.346588 593.755310,332.376587 
	C592.520142,332.378601 591.285583,332.676636 589.547241,332.902405 
	C590.832397,336.152679 592.066406,338.860779 592.973022,341.674347 
	C594.034546,344.968567 595.860962,346.275238 599.523865,346.152283 
	C608.506897,345.850830 617.506836,346.054138 627.500000,346.054840 
M305.963623,382.499298 
	C304.814880,386.091187 303.666168,389.683105 302.320038,393.892242 
	C307.190277,393.892242 311.325531,393.733093 315.441498,393.946075 
	C318.371155,394.097595 319.933563,393.247101 320.807678,390.233337 
	C322.653595,383.868896 324.925964,377.628204 327.063812,371.215485 
	C333.039429,371.215485 338.716217,370.953064 344.344116,371.362549 
	C346.229370,371.499725 348.596680,372.925598 349.696808,374.495850 
	C353.416077,379.804413 356.607025,385.480133 360.142761,390.922729 
	C360.882721,392.061768 362.195435,393.549927 363.306946,393.604736 
	C368.873260,393.879211 374.460419,393.730438 381.033905,393.730438 
	C376.481567,385.913483 372.476776,379.036743 368.181702,371.661469 
	C372.046631,371.278961 374.867645,371.163818 377.629333,370.697388 
	C388.267822,368.900787 395.489014,359.386139 394.726685,348.325958 
	C394.025604,338.154388 387.575958,332.839447 375.354370,332.761505 
	C357.031799,332.644684 338.708038,332.714630 320.384766,332.728516 
	C319.256073,332.729370 318.127472,332.934357 316.587494,333.084503 
	C317.728577,337.858398 318.802551,342.351440 319.938568,347.104065 
	C322.073090,347.104065 323.888245,347.104309 325.703400,347.104004 
	C340.695221,347.101715 355.687286,347.055237 370.678711,347.131592 
	C373.948090,347.148224 378.074615,346.829590 377.968018,351.709381 
	C377.874725,355.978699 374.339417,356.800323 370.781189,356.941498 
	C368.784943,357.020752 366.784088,356.993591 364.785278,356.997070 
	C349.460358,357.023895 334.133789,357.171906 318.811676,356.976105 
	C315.286285,356.931122 313.905304,358.105042 312.954193,361.370575 
	C310.955200,368.233917 308.470886,374.955963 305.963623,382.499298 
M167.500244,379.311005 
	C158.834091,379.309998 150.166794,379.395905 141.502182,379.279510 
	C134.977020,379.191864 133.135788,376.981384 134.284164,370.518982 
	C134.951782,366.762085 135.896729,363.019165 137.108017,359.400848 
	C140.529968,349.178864 143.433197,347.148376 154.285934,347.119965 
	C171.618408,347.074554 188.951126,347.110992 206.283585,347.059357 
	C207.900299,347.054565 210.161209,347.271088 211.020508,346.352936 
	C214.784271,342.331482 218.141907,337.929932 222.149170,333.055237 
	C196.125839,333.055237 171.326981,332.802185 146.538544,333.199615 
	C138.437607,333.329529 131.150085,336.857513 126.821190,344.209229 
	C121.009537,354.079041 117.151894,364.714661 117.010109,376.326660 
	C116.896545,385.627625 121.678177,391.277832 130.853226,393.156372 
	C133.287643,393.654816 135.809494,393.944427 138.292450,393.952606 
	C156.124771,394.011383 173.957443,393.979675 191.789948,393.949402 
	C192.937576,393.947449 194.590942,394.162048 195.150650,393.523468 
	C198.982681,389.151672 202.585342,384.578796 206.882538,379.309723 
	C193.133362,379.309723 180.816803,379.309723 167.500244,379.311005 
M255.124329,332.603394 
	C253.067749,333.678497 250.403351,334.255920 249.051071,335.907654 
	C238.514404,348.777405 228.211105,361.838776 217.876495,374.873260 
	C213.068649,380.937134 208.351410,387.072845 203.040131,393.885254 
	C206.541229,393.885254 209.202835,393.517700 211.726212,393.952515 
	C220.131424,395.400696 226.195206,392.687225 229.671997,384.709595 
	C231.128815,381.366882 233.741135,380.551544 237.303482,380.638275 
	C247.114838,380.877106 256.935730,380.722931 266.752838,380.726685 
	C275.572662,380.730042 275.564484,380.733673 277.819641,389.027740 
	C278.245850,390.595276 278.765717,392.137360 279.189362,393.518372 
	C284.995667,393.518372 290.400909,393.518372 296.253235,393.518372 
	C291.420258,373.751221 286.743286,354.392761 281.825409,335.095673 
	C281.539948,333.975433 279.320435,332.654480 277.966888,332.615631 
	C270.652863,332.405945 263.328094,332.571198 255.124329,332.603394 
M402.446442,393.723755 
	C410.041840,393.726746 410.035614,393.724823 412.361633,386.244019 
	C413.547516,382.430023 415.000183,378.679169 415.886261,374.797913 
	C416.617767,371.593597 418.165009,370.586548 421.405487,370.632416 
	C434.227173,370.813934 447.052704,370.716644 459.876678,370.759613 
	C461.102020,370.763733 462.326508,371.024780 463.864807,371.202820 
	C461.519470,378.697266 459.309875,385.757965 456.836884,393.660309 
	C461.420715,393.660309 465.215332,393.428497 468.967468,393.728210 
	C472.436005,394.005219 473.981018,392.661102 474.961182,389.386841 
	C479.828461,373.127228 484.917267,356.933990 489.903778,340.709900 
	C490.656250,338.261658 491.281281,335.774231 492.128510,332.715546 
	C487.098114,332.715546 482.769104,332.468079 478.500275,332.865875 
	C477.214355,332.985687 475.492096,334.681213 475.006439,336.028595 
	C473.090027,341.345642 471.363373,346.756378 470.009766,352.241760 
	C469.160767,355.682343 467.426086,356.633698 464.049072,356.588867 
	C454.059875,356.456146 444.066345,356.662109 434.074432,356.719818 
	C430.147797,356.742523 426.220886,356.723541 421.584015,356.723541 
	C423.988098,348.411011 426.136200,340.983551 428.519348,332.743439 
	C424.374939,332.743439 420.898438,333.025970 417.488525,332.670197 
	C413.449677,332.248779 411.600037,333.644440 410.520508,337.665955 
	C408.019287,346.983734 404.958710,356.151276 402.128601,365.380890 
	C399.318542,374.545135 396.513000,383.710815 393.446014,393.722748 
	C396.637665,393.722748 399.078613,393.722748 402.446442,393.723755 
z"/>
<path fill="#F09830" opacity="1.000000" stroke="none" 
	d="
M409.921722,234.799606 
	C410.620209,233.471603 411.318726,232.143616 412.166992,230.529022 
	C430.970551,231.658310 449.260712,234.378433 466.502625,242.420441 
	C481.587067,249.456177 497.053894,255.667480 512.281677,262.401581 
	C533.311401,271.701385 555.562866,275.269165 578.265259,276.997345 
	C607.980164,279.259399 637.753845,281.031219 667.367188,284.254761 
	C689.252075,286.637054 710.669983,291.878479 730.436462,302.265503 
	C747.773560,311.375824 761.762390,324.146912 772.239441,340.710175 
	C773.144043,342.140289 773.672119,343.808502 773.970032,345.622925 
	C763.812439,334.059479 752.045837,324.704742 738.942810,316.924927 
	C718.493896,304.783600 696.091797,298.507996 672.730347,296.103027 
	C647.070068,293.461365 621.288269,291.986542 595.553467,290.084625 
	C560.676819,287.507141 525.793396,285.022430 490.915222,282.466400 
	C476.161102,281.385132 461.412842,280.223694 446.693329,278.302917 
	C470.709198,276.816772 494.725067,275.330627 519.308716,273.809326 
	C518.683044,272.792572 518.548096,272.247101 518.236877,272.114044 
	C497.731598,263.347351 477.233734,254.562729 456.686493,245.895187 
	C442.063904,239.726883 426.553497,237.746506 410.451538,236.149109 
	C409.979706,235.428528 409.951996,235.113953 409.921722,234.799606 
z"/>
<path fill="#EB8F26" opacity="1.000000" stroke="none" 
	d="
M285.757568,446.117310 
	C281.402832,440.972931 277.480652,435.931763 273.709595,431.084808 
	C379.414001,426.679993 484.754547,422.290375 590.541077,418.002686 
	C577.853821,421.013702 564.790100,424.294922 551.574585,426.763611 
	C507.936798,434.915161 463.817780,438.976898 419.526855,441.018158 
	C375.095734,443.065887 330.636841,444.511200 285.757568,446.117310 
z"/>
<path fill="#ED9026" opacity="1.000000" stroke="none" 
	d="
M770.847290,410.065125 
	C765.484314,421.161591 755.909424,427.881012 744.801636,430.957764 
	C728.202942,435.555450 711.203003,439.109375 694.150635,441.545563 
	C678.560181,443.772858 662.673462,443.926361 646.412415,444.566040 
	C640.616516,437.366302 633.981384,440.363495 627.394775,441.259705 
	C627.618347,442.902679 627.790894,444.170532 627.963440,445.438385 
	C621.611084,445.663971 615.258728,445.889557 608.454468,445.643555 
	C607.132019,443.907440 606.450745,441.785889 605.354309,441.543671 
	C602.402893,440.891724 599.195679,441.398285 596.244019,440.746979 
	C594.305298,440.319214 592.634033,438.679474 590.842957,437.582458 
	C604.218445,435.339325 617.682007,433.516541 630.944946,430.736420 
	C644.591919,427.875763 658.036133,424.052399 671.585999,420.719208 
	C674.441101,420.016876 677.369934,419.614105 680.985352,419.089813 
	C691.567871,418.223602 701.441223,417.452362 711.289124,416.434723 
	C731.149231,414.382416 750.995361,412.196136 770.847290,410.065125 
M620.989990,441.192932 
	C620.154907,441.298950 619.319885,441.404999 618.484802,441.511017 
	C618.739990,442.009064 618.995117,442.507080 619.250305,443.005096 
	C619.997437,442.521790 620.744568,442.038483 620.989990,441.192932 
z"/>
<path fill="#0B0908" opacity="1.000000" stroke="none" 
	d="
M771.094116,409.796509 
	C750.995361,412.196136 731.149231,414.382416 711.289124,416.434723 
	C701.441223,417.452362 691.567871,418.223602 681.372375,418.955200 
	C691.223877,415.422760 701.412659,412.052490 711.593201,408.657593 
	C727.517944,403.347137 743.428711,397.994751 759.363831,392.715881 
	C763.973694,391.188812 769.220459,389.242676 773.021912,393.183563 
	C776.934021,397.239166 774.023010,402.278900 772.551819,406.806946 
	C772.246704,407.745941 771.749634,408.622559 771.094116,409.796509 
z"/>
<path fill="#F0952E" opacity="1.000000" stroke="none" 
	d="
M590.526489,437.564453 
	C592.634033,438.679474 594.305298,440.319214 596.244019,440.746979 
	C599.195679,441.398285 602.402893,440.891724 605.354309,441.543671 
	C606.450745,441.785889 607.132019,443.907440 608.002808,445.557678 
	C595.617310,446.181976 583.231689,446.420532 570.434692,446.179016 
	C571.254272,444.673706 572.495911,443.660950 573.712830,442.619446 
	C574.799438,441.689362 575.858887,440.727539 576.930298,439.779755 
	C580.024780,439.200897 583.119202,438.622040 586.657227,438.372192 
	C587.735901,438.440186 588.371155,438.179199 589.006348,437.918213 
	C589.407593,437.794312 589.808838,437.670380 590.526489,437.564453 
z"/>
<path fill="#ED9026" opacity="1.000000" stroke="none" 
	d="
M576.492920,439.755280 
	C575.858887,440.727539 574.799438,441.689362 573.712830,442.619446 
	C572.495911,443.660950 571.254272,444.673706 570.011658,446.032867 
	C564.311523,446.489563 558.623047,446.612366 552.475830,446.272827 
	C552.011292,444.873657 552.005615,443.936829 552.000000,443.000000 
	C554.395203,442.641022 556.790344,442.282043 559.768494,442.208374 
	C561.238892,442.197662 562.126282,441.901611 563.013733,441.605560 
	C567.361023,440.980652 571.708313,440.355713 576.492920,439.755280 
z"/>
<path fill="#F0952E" opacity="1.000000" stroke="none" 
	d="
M628.409058,445.565125 
	C627.790894,444.170532 627.618347,442.902679 627.394775,441.259705 
	C633.981384,440.363495 640.616516,437.366302 645.956665,444.489838 
	C640.288757,445.124878 634.571777,445.408386 628.409058,445.565125 
z"/>
<path fill="#F0952E" opacity="1.000000" stroke="none" 
	d="
M551.561279,442.946625 
	C552.005615,443.936829 552.011292,444.873657 552.023560,446.160522 
	C546.032776,446.627838 540.035400,446.745087 533.553101,446.553619 
	C533.062073,445.851410 533.055969,445.457947 533.049805,445.064453 
	C539.074097,444.340698 545.098328,443.616974 551.561279,442.946625 
z"/>
<path fill="#F5C48C" opacity="1.000000" stroke="none" 
	d="
M532.603271,444.991272 
	C533.055969,445.457947 533.062073,445.851410 533.092529,446.539124 
	C528.188965,446.833344 523.260925,446.833344 518.332947,446.833344 
	C518.318604,446.662598 518.304321,446.491852 518.290039,446.321075 
	C522.912231,445.853424 527.534485,445.385742 532.603271,444.991272 
z"/>
<path fill="#F0952E" opacity="1.000000" stroke="none" 
	d="
M562.710327,441.504761 
	C562.126282,441.901611 561.238892,442.197662 560.179565,442.257385 
	C560.807434,441.815338 561.607239,441.609650 562.710327,441.504761 
z"/>
<path fill="#ED9026" opacity="1.000000" stroke="none" 
	d="
M588.668945,437.879456 
	C588.371155,438.179199 587.735901,438.440186 587.054749,438.408539 
	C587.449707,438.024170 587.890564,437.932434 588.668945,437.879456 
z"/>
<path fill="#EC9A39" opacity="1.000000" stroke="none" 
	d="
M409.674744,234.905380 
	C409.951996,235.113953 409.979706,235.428528 410.024078,235.978531 
	C409.617737,236.326431 409.192169,236.439133 408.435577,236.547791 
	C408.545654,236.032883 408.986725,235.522018 409.674744,234.905380 
z"/>
<path fill="#E6851F" opacity="1.000000" stroke="none" 
	d="
M627.000000,346.054626 
	C617.506836,346.054138 608.506897,345.850830 599.523865,346.152283 
	C595.860962,346.275238 594.034546,344.968567 592.973022,341.674347 
	C592.066406,338.860779 590.832397,336.152679 589.547241,332.902405 
	C591.285583,332.676636 592.520142,332.378601 593.755310,332.376587 
	C611.907715,332.346588 630.060120,332.349243 648.212585,332.366699 
	C650.042358,332.368439 651.876770,332.457550 653.700867,332.606476 
	C663.498657,333.406372 667.928894,336.593506 669.239136,343.733429 
	C670.868530,352.613098 667.371765,359.181732 658.941223,363.097260 
	C658.356262,363.368958 657.800598,363.703674 656.851562,364.212799 
	C662.045105,369.661743 662.646790,375.691254 659.501770,382.126404 
	C655.869263,389.558960 649.183533,392.404205 641.583008,392.961792 
	C633.292480,393.570038 624.944580,393.463684 616.620544,393.532837 
	C605.463135,393.625519 594.304504,393.600739 583.146423,393.592529 
	C581.376953,393.591217 579.607605,393.412201 577.137451,393.276947 
	C581.037354,381.166718 584.633667,369.629822 588.606140,358.223907 
	C589.011658,357.059448 591.666443,356.053497 593.289856,356.034607 
	C609.941895,355.840485 626.596497,355.869171 643.250366,355.823914 
	C644.914062,355.819397 646.593933,355.868317 648.237427,355.662109 
	C651.118286,355.300659 653.484009,354.129761 653.391907,350.725677 
	C653.299744,347.320953 650.923401,346.179413 647.983948,346.133484 
	C641.157227,346.026917 634.328125,346.071533 627.000000,346.054626 
M643.618530,378.123444 
	C646.415161,373.128540 644.716431,369.916473 638.711182,369.795593 
	C627.239685,369.564606 615.760010,369.651794 604.285645,369.777832 
	C603.087891,369.790985 601.325928,370.658447 600.826111,371.639313 
	C599.603943,374.037445 598.968079,376.734375 597.937012,379.781372 
	C612.071228,379.781372 625.365295,379.816772 638.658569,379.730225 
	C640.092773,379.720886 641.522339,379.003876 643.618530,378.123444 
z"/>
<path fill="#F8F8F8" opacity="1.000000" stroke="none" 
	d="
M306.074707,382.117645 
	C308.470886,374.955963 310.955200,368.233917 312.954193,361.370575 
	C313.905304,358.105042 315.286285,356.931122 318.811676,356.976105 
	C334.133789,357.171906 349.460358,357.023895 364.785278,356.997070 
	C366.784088,356.993591 368.784943,357.020752 370.781189,356.941498 
	C374.339417,356.800323 377.874725,355.978699 377.968018,351.709381 
	C378.074615,346.829590 373.948090,347.148224 370.678711,347.131592 
	C355.687286,347.055237 340.695221,347.101715 325.703400,347.104004 
	C323.888245,347.104309 322.073090,347.104065 319.938568,347.104065 
	C318.802551,342.351440 317.728577,337.858398 316.587494,333.084503 
	C318.127472,332.934357 319.256073,332.729370 320.384766,332.728516 
	C338.708038,332.714630 357.031799,332.644684 375.354370,332.761505 
	C387.575958,332.839447 394.025604,338.154388 394.726685,348.325958 
	C395.489014,359.386139 388.267822,368.900787 377.629333,370.697388 
	C374.867645,371.163818 372.046631,371.278961 368.181702,371.661469 
	C372.476776,379.036743 376.481567,385.913483 381.033905,393.730438 
	C374.460419,393.730438 368.873260,393.879211 363.306946,393.604736 
	C362.195435,393.549927 360.882721,392.061768 360.142761,390.922729 
	C356.607025,385.480133 353.416077,379.804413 349.696808,374.495850 
	C348.596680,372.925598 346.229370,371.499725 344.344116,371.362549 
	C338.716217,370.953064 333.039429,371.215485 327.063812,371.215485 
	C324.925964,377.628204 322.653595,383.868896 320.807678,390.233337 
	C319.933563,393.247101 318.371155,394.097595 315.441498,393.946075 
	C311.325531,393.733093 307.190277,393.892242 302.320038,393.892242 
	C303.666168,389.683105 304.814880,386.091187 306.074707,382.117645 
z"/>
<path fill="#F7F7F7" opacity="1.000000" stroke="none" 
	d="
M168.000244,379.310364 
	C180.816803,379.309723 193.133362,379.309723 206.882538,379.309723 
	C202.585342,384.578796 198.982681,389.151672 195.150650,393.523468 
	C194.590942,394.162048 192.937576,393.947449 191.789948,393.949402 
	C173.957443,393.979675 156.124771,394.011383 138.292450,393.952606 
	C135.809494,393.944427 133.287643,393.654816 130.853226,393.156372 
	C121.678177,391.277832 116.896545,385.627625 117.010109,376.326660 
	C117.151894,364.714661 121.009537,354.079041 126.821190,344.209229 
	C131.150085,336.857513 138.437607,333.329529 146.538544,333.199615 
	C171.326981,332.802185 196.125839,333.055237 222.149170,333.055237 
	C218.141907,337.929932 214.784271,342.331482 211.020508,346.352936 
	C210.161209,347.271088 207.900299,347.054565 206.283585,347.059357 
	C188.951126,347.110992 171.618408,347.074554 154.285934,347.119965 
	C143.433197,347.148376 140.529968,349.178864 137.108017,359.400848 
	C135.896729,363.019165 134.951782,366.762085 134.284164,370.518982 
	C133.135788,376.981384 134.977020,379.191864 141.502182,379.279510 
	C150.166794,379.395905 158.834091,379.309998 168.000244,379.310364 
z"/>
<path fill="#F6F6F6" opacity="1.000000" stroke="none" 
	d="
M255.565689,332.605286 
	C263.328094,332.571198 270.652863,332.405945 277.966888,332.615631 
	C279.320435,332.654480 281.539948,333.975433 281.825409,335.095673 
	C286.743286,354.392761 291.420258,373.751221 296.253235,393.518372 
	C290.400909,393.518372 284.995667,393.518372 279.189362,393.518372 
	C278.765717,392.137360 278.245850,390.595276 277.819641,389.027740 
	C275.564484,380.733673 275.572662,380.730042 266.752838,380.726685 
	C256.935730,380.722931 247.114838,380.877106 237.303482,380.638275 
	C233.741135,380.551544 231.128815,381.366882 229.671997,384.709595 
	C226.195206,392.687225 220.131424,395.400696 211.726212,393.952515 
	C209.202835,393.517700 206.541229,393.885254 203.040131,393.885254 
	C208.351410,387.072845 213.068649,380.937134 217.876495,374.873260 
	C228.211105,361.838776 238.514404,348.777405 249.051071,335.907654 
	C250.403351,334.255920 253.067749,333.678497 255.565689,332.605286 
M253.764252,354.254028 
	C251.012405,358.018524 248.260574,361.782990 245.232437,365.925446 
	C254.558014,365.925446 262.926025,365.925446 271.659576,365.925446 
	C270.008850,359.312866 268.462250,353.117462 267.100037,347.660645 
	C259.562683,344.178741 257.394928,349.891205 253.764252,354.254028 
z"/>
<path fill="#E4841E" opacity="1.000000" stroke="none" 
	d="
M401.983032,393.723267 
	C399.078613,393.722748 396.637665,393.722748 393.446014,393.722748 
	C396.513000,383.710815 399.318542,374.545135 402.128601,365.380890 
	C404.958710,356.151276 408.019287,346.983734 410.520508,337.665955 
	C411.600037,333.644440 413.449677,332.248779 417.488525,332.670197 
	C420.898438,333.025970 424.374939,332.743439 428.519348,332.743439 
	C426.136200,340.983551 423.988098,348.411011 421.584015,356.723541 
	C426.220886,356.723541 430.147797,356.742523 434.074432,356.719818 
	C444.066345,356.662109 454.059875,356.456146 464.049072,356.588867 
	C467.426086,356.633698 469.160767,355.682343 470.009766,352.241760 
	C471.363373,346.756378 473.090027,341.345642 475.006439,336.028595 
	C475.492096,334.681213 477.214355,332.985687 478.500275,332.865875 
	C482.769104,332.468079 487.098114,332.715546 492.128510,332.715546 
	C491.281281,335.774231 490.656250,338.261658 489.903778,340.709900 
	C484.917267,356.933990 479.828461,373.127228 474.961182,389.386841 
	C473.981018,392.661102 472.436005,394.005219 468.967468,393.728210 
	C465.215332,393.428497 461.420715,393.660309 456.836884,393.660309 
	C459.309875,385.757965 461.519470,378.697266 463.864807,371.202820 
	C462.326508,371.024780 461.102020,370.763733 459.876678,370.759613 
	C447.052704,370.716644 434.227173,370.813934 421.405487,370.632416 
	C418.165009,370.586548 416.617767,371.593597 415.886261,374.797913 
	C415.000183,378.679169 413.547516,382.430023 412.361633,386.244019 
	C410.035614,393.724823 410.041840,393.726746 401.983032,393.723267 
z"/>
<path fill="#E88721" opacity="1.000000" stroke="none" 
	d="
M507.912109,374.000763 
	C507.696625,378.550873 510.088531,380.003784 514.358948,379.945526 
	C524.805481,379.803009 535.255493,379.882812 545.703857,379.924133 
	C550.143372,379.941681 552.841003,377.779968 554.108276,373.616058 
	C555.845459,367.907928 557.609192,362.207855 559.966248,356.270416 
	C563.627502,357.126129 563.928406,359.062866 563.579407,362.235565 
	C562.934937,368.094910 563.112549,374.064331 563.290894,379.977539 
	C563.325378,381.122498 564.927979,382.220123 565.807251,383.339569 
	C562.143311,390.006195 555.519531,392.512970 548.890686,392.883484 
	C534.846802,393.668427 520.718445,393.651855 506.655762,393.129211 
	C497.881104,392.803070 494.135406,388.829224 492.718689,380.327759 
	C495.099091,379.359528 497.844818,379.349152 498.716278,378.065948 
	C501.085571,374.577057 504.046844,373.544739 507.912109,374.000763 
z"/>
<path fill="#E5821B" opacity="1.000000" stroke="none" 
	d="
M508.069702,373.659851 
	C504.046844,373.544739 501.085571,374.577057 498.716278,378.065948 
	C497.844818,379.349152 495.099091,379.359528 492.745697,379.908508 
	C492.558105,376.264099 492.259521,372.501221 493.213837,369.088745 
	C496.299011,358.057129 499.727936,347.115417 503.348877,336.247192 
	C503.845093,334.757751 506.083557,333.068634 507.681946,332.879547 
	C511.735046,332.399994 515.882751,332.720276 520.849243,332.720276 
	C516.482117,346.767120 512.354736,360.043060 508.069702,373.659851 
z"/>
<path fill="#E3821C" opacity="1.000000" stroke="none" 
	d="
M566.056580,383.139465 
	C564.927979,382.220123 563.325378,381.122498 563.290894,379.977539 
	C563.112549,374.064331 562.934937,368.094910 563.579407,362.235565 
	C563.928406,359.062866 563.627502,357.126129 560.194336,355.983521 
	C561.775146,348.901367 563.638000,341.842926 565.791565,334.874329 
	C566.117371,333.820007 567.753906,332.540314 568.856445,332.468018 
	C573.126038,332.188019 577.424927,332.354156 582.478333,332.354156 
	C581.868042,334.813995 581.488647,336.700684 580.931152,338.533203 
	C577.015137,351.404907 573.103394,364.278259 569.079102,377.116211 
	C568.442383,379.147430 567.244385,381.002716 566.056580,383.139465 
z"/>
<path fill="#F0952E" opacity="1.000000" stroke="none" 
	d="
M621.240845,441.374084 
	C620.744568,442.038483 619.997437,442.521790 619.250305,443.005096 
	C618.995117,442.507080 618.739990,442.009064 618.484802,441.511017 
	C619.319885,441.404999 620.154907,441.298950 621.240845,441.374084 
z"/>
<path fill="#0F0904" opacity="1.000000" stroke="none" 
	d="
M643.286316,378.369263 
	C641.522339,379.003876 640.092773,379.720886 638.658569,379.730225 
	C625.365295,379.816772 612.071228,379.781372 597.937012,379.781372 
	C598.968079,376.734375 599.603943,374.037445 600.826111,371.639313 
	C601.325928,370.658447 603.087891,369.790985 604.285645,369.777832 
	C615.760010,369.651794 627.239685,369.564606 638.711182,369.795593 
	C644.716431,369.916473 646.415161,373.128540 643.286316,378.369263 
z"/>
<path fill="#090909" opacity="1.000000" stroke="none" 
	d="
M253.972076,353.962097 
	C257.394928,349.891205 259.562683,344.178741 267.100037,347.660645 
	C268.462250,353.117462 270.008850,359.312866 271.659576,365.925446 
	C262.926025,365.925446 254.558014,365.925446 245.232437,365.925446 
	C248.260574,361.782990 251.012405,358.018524 253.972076,353.962097 
z"/>
</svg>